<svg width="168" height="19" viewBox="0 0 168 19" fill="none" xmlns="http://www.w3.org/2000/svg">
<path d="M12.1 8.925C13.1667 9.175 13.9917 9.69167 14.575 10.475C15.175 11.2417 15.475 12.1333 15.475 13.15C15.475 14.7 14.9583 15.9 13.925 16.75C12.9083 17.5833 11.4417 18 9.525 18H0.25V0.3H9.275C11.075 0.3 12.4917 0.691666 13.525 1.475C14.5583 2.25833 15.075 3.4 15.075 4.9C15.075 5.93333 14.8 6.80833 14.25 7.525C13.7167 8.225 13 8.69167 12.1 8.925ZM5.8 7.2H7.95C8.45 7.2 8.81667 7.1 9.05 6.9C9.3 6.7 9.425 6.39167 9.425 5.975C9.425 5.54167 9.3 5.225 9.05 5.025C8.81667 4.80833 8.45 4.7 7.95 4.7H5.8V7.2ZM8.325 13.55C8.825 13.55 9.19167 13.4583 9.425 13.275C9.675 13.075 9.8 12.7583 9.8 12.325C9.8 11.475 9.30833 11.05 8.325 11.05H5.8V13.55H8.325ZM22.7648 0.3V10.275C22.7648 11.0917 22.9398 11.7417 23.2898 12.225C23.6565 12.6917 24.2398 12.925 25.0398 12.925C25.8398 12.925 26.4315 12.6917 26.8148 12.225C27.1982 11.7417 27.3898 11.0917 27.3898 10.275V0.3H32.9148V10.275C32.9148 11.9583 32.5648 13.4 31.8648 14.6C31.1648 15.7833 30.2065 16.675 28.9898 17.275C27.7732 17.875 26.4148 18.175 24.9148 18.175C23.4148 18.175 22.0815 17.875 20.9148 17.275C19.7648 16.675 18.8648 15.7833 18.2148 14.6C17.5648 13.4167 17.2398 11.975 17.2398 10.275V0.3H22.7648ZM42.6836 0.3C44.5336 0.3 46.1503 0.675 47.5336 1.425C48.9336 2.175 50.0086 3.21667 50.7586 4.55C51.5086 5.88333 51.8836 7.4 51.8836 9.1C51.8836 10.7833 51.5086 12.3 50.7586 13.65C50.0086 15 48.9336 16.0667 47.5336 16.85C46.1503 17.6167 44.5336 18 42.6836 18H35.3086V0.3H42.6836ZM42.1836 13.05C43.4336 13.05 44.4253 12.7083 45.1586 12.025C45.8919 11.3417 46.2586 10.3667 46.2586 9.1C46.2586 7.83333 45.8919 6.85833 45.1586 6.175C44.4253 5.49167 43.4336 5.15 42.1836 5.15H40.8586V13.05H42.1836ZM64.7377 6.35C64.521 6 64.2127 5.73333 63.8127 5.55C63.4127 5.35 62.9294 5.25 62.3627 5.25C61.296 5.25 60.471 5.6 59.8877 6.3C59.3044 6.98333 59.0127 7.925 59.0127 9.125C59.0127 10.5083 59.3377 11.5417 59.9877 12.225C60.6377 12.9083 61.6377 13.25 62.9877 13.25C64.271 13.25 65.3044 12.7333 66.0877 11.7H61.6627V7.775H70.6877V13.325C69.921 14.6417 68.8627 15.775 67.5127 16.725C66.1627 17.6583 64.4544 18.125 62.3877 18.125C60.5544 18.125 58.9544 17.75 57.5877 17C56.2377 16.2333 55.196 15.1667 54.4627 13.8C53.746 12.4333 53.3877 10.875 53.3877 9.125C53.3877 7.375 53.746 5.81667 54.4627 4.45C55.196 3.08333 56.2377 2.025 57.5877 1.275C58.9377 0.508333 60.521 0.124999 62.3377 0.124999C64.6544 0.124999 66.5377 0.683333 67.9877 1.8C69.4544 2.91667 70.321 4.43333 70.5877 6.35H64.7377ZM78.2365 4.725V6.9H83.7365V11.075H78.2365V13.575H84.4865V18H72.6865V0.3H84.4865V4.725H78.2365ZM100.478 0.3V4.7H95.7781V18H90.2281V4.7H85.5781V0.3H100.478Z" fill="#233876"/>
<path d="M113.833 8.925C114.9 9.175 115.725 9.69167 116.308 10.475C116.908 11.2417 117.208 12.1333 117.208 13.15C117.208 14.7 116.692 15.9 115.658 16.75C114.642 17.5833 113.175 18 111.258 18H101.983V0.3H111.008C112.808 0.3 114.225 0.691666 115.258 1.475C116.292 2.25833 116.808 3.4 116.808 4.9C116.808 5.93333 116.533 6.80833 115.983 7.525C115.45 8.225 114.733 8.69167 113.833 8.925ZM107.533 7.2H109.683C110.183 7.2 110.55 7.1 110.783 6.9C111.033 6.7 111.158 6.39167 111.158 5.975C111.158 5.54167 111.033 5.225 110.783 5.025C110.55 4.80833 110.183 4.7 109.683 4.7H107.533V7.2ZM110.058 13.55C110.558 13.55 110.925 13.4583 111.158 13.275C111.408 13.075 111.533 12.7583 111.533 12.325C111.533 11.475 111.042 11.05 110.058 11.05H107.533V13.55H110.058ZM124.623 4.725V6.9H130.123V11.075H124.623V13.575H130.873V18H119.073V0.3H130.873V4.725H124.623ZM144.315 15.325H138.415L137.54 18H131.715L138.19 0.3H144.59L151.04 18H145.19L144.315 15.325ZM142.965 11.15L141.365 6.225L139.765 11.15H142.965ZM161.201 18L157.876 11.65H157.851V18H152.301V0.3H160.551C161.984 0.3 163.209 0.558333 164.226 1.075C165.242 1.575 166.001 2.26667 166.501 3.15C167.017 4.01667 167.276 5 167.276 6.1C167.276 7.28333 166.942 8.33333 166.276 9.25C165.626 10.1667 164.684 10.825 163.451 11.225L167.301 18H161.201ZM157.851 7.95H160.051C160.584 7.95 160.984 7.83333 161.251 7.6C161.517 7.35 161.651 6.96667 161.651 6.45C161.651 5.98333 161.509 5.61667 161.226 5.35C160.959 5.08333 160.567 4.95 160.051 4.95H157.851V7.95Z" fill="#1A56DB"/>
</svg>
