<svg width="150" height="20" viewBox="0 0 150 20" fill="none" xmlns="http://www.w3.org/2000/svg">
<path d="M6.55 19.25C5.36667 19.25 4.30833 18.9917 3.375 18.475C2.45833 17.9583 1.74167 17.2167 1.225 16.25C0.708333 15.2667 0.45 14.1 0.45 12.75C0.45 11.4 0.708333 10.2417 1.225 9.275C1.74167 8.29167 2.45 7.54167 3.35 7.025C4.25 6.50833 5.275 6.25 6.425 6.25C7.59167 6.25 8.58333 6.5 9.4 7C10.2333 7.5 10.8667 8.18333 11.3 9.05C11.7333 9.9 11.95 10.8583 11.95 11.925C11.95 12.2083 11.9417 12.4667 11.925 12.7C11.9083 12.9333 11.8833 13.1417 11.85 13.325H2.425C2.525 14.6417 2.93333 15.6667 3.65 16.4C4.36667 17.1333 5.31667 17.5 6.5 17.5C7.41667 17.5 8.15833 17.325 8.725 16.975C9.30833 16.625 9.775 16.15 10.125 15.55L11.7 16.475C11.2333 17.325 10.5583 18 9.675 18.5C8.80833 19 7.76667 19.25 6.55 19.25ZM6.375 8C5.325 8 4.45833 8.31667 3.775 8.95C3.10833 9.56667 2.68333 10.4333 2.5 11.55H9.95C9.9 10.4167 9.55 9.54167 8.9 8.925C8.25 8.30833 7.40833 8 6.375 8ZM22.8875 6.5V8.225H18.3375V15.55C18.3375 16.1667 18.5125 16.625 18.8625 16.925C19.2125 17.225 19.6625 17.375 20.2125 17.375C20.6958 17.375 21.1125 17.2917 21.4625 17.125C21.8125 16.9583 22.1292 16.7333 22.4125 16.45L23.1125 18.125C22.7292 18.475 22.2708 18.75 21.7375 18.95C21.2208 19.15 20.6208 19.25 19.9375 19.25C19.3042 19.25 18.7125 19.1417 18.1625 18.925C17.6125 18.6917 17.1708 18.3333 16.8375 17.85C16.5208 17.35 16.3542 16.7 16.3375 15.9V8.225H13.8375V6.5H16.3375V3.5L18.3375 2.95V6.5H22.8875ZM25.8611 19V0.75H27.8611V8.375C28.2945 7.625 28.8695 7.08333 29.5861 6.75C30.3028 6.41667 31.0861 6.25 31.9361 6.25C32.8361 6.25 33.6528 6.425 34.3861 6.775C35.1195 7.10833 35.7028 7.625 36.1361 8.325C36.5861 9.025 36.8111 9.91667 36.8111 11V19H34.8111V11.7C34.8111 10.3167 34.5111 9.35833 33.9111 8.825C33.3278 8.275 32.6028 8 31.7361 8C31.1361 8 30.5361 8.14167 29.9361 8.425C29.3361 8.70833 28.8361 9.175 28.4361 9.825C28.0528 10.4583 27.8611 11.3083 27.8611 12.375V19H25.8611ZM48.6396 10.925C48.6396 9.99167 48.3896 9.275 47.8896 8.775C47.3896 8.25833 46.6813 8 45.7646 8C44.898 8 44.1646 8.19167 43.5646 8.575C42.9646 8.94167 42.523 9.54167 42.2396 10.375L40.6146 9.375C40.948 8.44167 41.5646 7.69167 42.4646 7.125C43.3646 6.54167 44.4813 6.25 45.8146 6.25C46.7146 6.25 47.5313 6.40833 48.2646 6.725C48.998 7.025 49.573 7.49167 49.9896 8.125C50.423 8.74167 50.6396 9.54167 50.6396 10.525V16.575C50.6396 17.175 50.9563 17.475 51.5896 17.475C51.9063 17.475 52.2146 17.4333 52.5146 17.35L52.4146 18.925C52.0813 19.0917 51.648 19.175 51.1146 19.175C50.498 19.175 49.9646 19.025 49.5146 18.725C49.0813 18.425 48.798 17.9667 48.6646 17.35C48.2313 18 47.6396 18.4833 46.8896 18.8C46.1396 19.1 45.398 19.25 44.6646 19.25C43.9313 19.25 43.248 19.125 42.6146 18.875C41.9813 18.625 41.473 18.25 41.0896 17.75C40.723 17.2333 40.5396 16.6 40.5396 15.85C40.5396 14.9167 40.848 14.15 41.4646 13.55C42.098 12.9333 42.973 12.5167 44.0896 12.3L48.6396 11.4V10.925ZM42.5896 15.75C42.5896 16.2667 42.7896 16.6917 43.1896 17.025C43.6063 17.3417 44.1896 17.5 44.9396 17.5C45.5896 17.5 46.1896 17.3917 46.7396 17.175C47.3063 16.9417 47.7646 16.6 48.1146 16.15C48.4646 15.6833 48.6396 15.0917 48.6396 14.375V13.05L45.0146 13.8C44.198 13.9667 43.5896 14.2 43.1896 14.5C42.7896 14.8 42.5896 15.2167 42.5896 15.75ZM55.4998 19V6.5H57.2498L57.3748 8.45C57.8081 7.66667 58.3998 7.10833 59.1498 6.775C59.8998 6.425 60.7081 6.25 61.5748 6.25C62.4748 6.25 63.2915 6.425 64.0248 6.775C64.7581 7.10833 65.3415 7.625 65.7748 8.325C66.2248 9.025 66.4498 9.91667 66.4498 11V19H64.4498V11.7C64.4498 10.3167 64.1498 9.35833 63.5498 8.825C62.9665 8.275 62.2415 8 61.3748 8C60.7748 8 60.1748 8.14167 59.5748 8.425C58.9748 8.70833 58.4748 9.16667 58.0748 9.8C57.6915 10.4333 57.4998 11.2833 57.4998 12.35V19H55.4998ZM70.9783 19V6.5H72.7283L72.8533 8.45C73.3033 7.68333 73.8867 7.125 74.6033 6.775C75.3367 6.425 76.0867 6.25 76.8533 6.25C77.7367 6.25 78.57 6.45 79.3533 6.85C80.1367 7.25 80.7367 7.86667 81.1533 8.7C81.42 8.13333 81.795 7.675 82.2783 7.325C82.7617 6.95833 83.2867 6.69167 83.8533 6.525C84.4367 6.34167 84.9867 6.25 85.5033 6.25C86.3033 6.25 87.0617 6.41667 87.7783 6.75C88.5117 7.08333 89.1117 7.6 89.5783 8.3C90.045 9 90.2783 9.9 90.2783 11V19H88.2783V11.2C88.2783 10.0667 87.995 9.25 87.4283 8.75C86.8617 8.25 86.1617 8 85.3283 8C84.6783 8 84.07 8.15833 83.5033 8.475C82.9367 8.79167 82.4783 9.25833 82.1283 9.875C81.795 10.4917 81.6283 11.25 81.6283 12.15V19H79.6283V11.2C79.6283 10.0667 79.345 9.25 78.7783 8.75C78.2117 8.25 77.5117 8 76.6783 8C76.1283 8 75.5617 8.15 74.9783 8.45C74.4117 8.73333 73.9367 9.19167 73.5533 9.825C73.17 10.4583 72.9783 11.2917 72.9783 12.325V19H70.9783ZM99.9814 6.25C101.165 6.25 102.206 6.50833 103.106 7.025C104.023 7.54167 104.74 8.29167 105.256 9.275C105.773 10.2417 106.031 11.4 106.031 12.75C106.031 14.1 105.773 15.2667 105.256 16.25C104.74 17.2167 104.023 17.9583 103.106 18.475C102.206 18.9917 101.165 19.25 99.9814 19.25C98.8148 19.25 97.7731 18.9917 96.8564 18.475C95.9398 17.9583 95.2231 17.2167 94.7064 16.25C94.1898 15.2667 93.9314 14.1 93.9314 12.75C93.9314 11.4 94.1898 10.2417 94.7064 9.275C95.2231 8.29167 95.9398 7.54167 96.8564 7.025C97.7731 6.50833 98.8148 6.25 99.9814 6.25ZM99.9814 7.975C98.7148 7.975 97.7231 8.4 97.0064 9.25C96.2898 10.1 95.9314 11.2667 95.9314 12.75C95.9314 14.2333 96.2898 15.4 97.0064 16.25C97.7231 17.1 98.7148 17.525 99.9814 17.525C101.248 17.525 102.24 17.1 102.956 16.25C103.673 15.4 104.031 14.2333 104.031 12.75C104.031 11.2667 103.673 10.1 102.956 9.25C102.24 8.4 101.248 7.975 99.9814 7.975ZM116.727 6.5V8.225H112.552V19H110.552V8.225H108.052V6.5H110.552V4.4C110.552 3.28333 110.894 2.375 111.577 1.675C112.26 0.975 113.285 0.625 114.652 0.625C115.085 0.625 115.494 0.674999 115.877 0.774999C116.26 0.874999 116.56 1.01667 116.777 1.2L116.252 2.825C115.852 2.575 115.377 2.45 114.827 2.45C114.11 2.45 113.552 2.625 113.152 2.975C112.752 3.30833 112.552 3.85 112.552 4.6V6.5H116.727ZM126.552 6.5V8.225H122.377V19H120.377V8.225H117.877V6.5H120.377V4.4C120.377 3.28333 120.719 2.375 121.402 1.675C122.085 0.975 123.11 0.625 124.477 0.625C124.91 0.625 125.319 0.674999 125.702 0.774999C126.085 0.874999 126.385 1.01667 126.602 1.2L126.077 2.825C125.677 2.575 125.202 2.45 124.652 2.45C123.935 2.45 123.377 2.625 122.977 2.975C122.577 3.30833 122.377 3.85 122.377 4.6V6.5H126.552ZM135.773 10.925C135.773 9.99167 135.523 9.275 135.023 8.775C134.523 8.25833 133.815 8 132.898 8C132.032 8 131.298 8.19167 130.698 8.575C130.098 8.94167 129.657 9.54167 129.373 10.375L127.748 9.375C128.082 8.44167 128.698 7.69167 129.598 7.125C130.498 6.54167 131.615 6.25 132.948 6.25C133.848 6.25 134.665 6.40833 135.398 6.725C136.132 7.025 136.707 7.49167 137.123 8.125C137.557 8.74167 137.773 9.54167 137.773 10.525V16.575C137.773 17.175 138.09 17.475 138.723 17.475C139.04 17.475 139.348 17.4333 139.648 17.35L139.548 18.925C139.215 19.0917 138.782 19.175 138.248 19.175C137.632 19.175 137.098 19.025 136.648 18.725C136.215 18.425 135.932 17.9667 135.798 17.35C135.365 18 134.773 18.4833 134.023 18.8C133.273 19.1 132.532 19.25 131.798 19.25C131.065 19.25 130.382 19.125 129.748 18.875C129.115 18.625 128.607 18.25 128.223 17.75C127.857 17.2333 127.673 16.6 127.673 15.85C127.673 14.9167 127.982 14.15 128.598 13.55C129.232 12.9333 130.107 12.5167 131.223 12.3L135.773 11.4V10.925ZM129.723 15.75C129.723 16.2667 129.923 16.6917 130.323 17.025C130.74 17.3417 131.323 17.5 132.073 17.5C132.723 17.5 133.323 17.3917 133.873 17.175C134.44 16.9417 134.898 16.6 135.248 16.15C135.598 15.6833 135.773 15.0917 135.773 14.375V13.05L132.148 13.8C131.332 13.9667 130.723 14.2 130.323 14.5C129.923 14.8 129.723 15.2167 129.723 15.75ZM149.645 6.5V8.225H145.095V15.55C145.095 16.1667 145.27 16.625 145.62 16.925C145.97 17.225 146.42 17.375 146.97 17.375C147.454 17.375 147.87 17.2917 148.22 17.125C148.57 16.9583 148.887 16.7333 149.17 16.45L149.87 18.125C149.487 18.475 149.029 18.75 148.495 18.95C147.979 19.15 147.379 19.25 146.695 19.25C146.062 19.25 145.47 19.1417 144.92 18.925C144.37 18.6917 143.929 18.3333 143.595 17.85C143.279 17.35 143.112 16.7 143.095 15.9V8.225H140.595V6.5H143.095V3.5L145.095 2.95V6.5H149.645Z" fill="#374151"/>
</svg>
