<svg width="169" height="37" viewBox="0 0 169 37" fill="none" xmlns="http://www.w3.org/2000/svg">
<path d="M7.55 27.25C6.36667 27.25 5.30833 26.9917 4.375 26.475C3.45833 25.9583 2.74167 25.2167 2.225 24.25C1.70833 23.2667 1.45 22.1 1.45 20.75C1.45 19.4 1.70833 18.2417 2.225 17.275C2.74167 16.2917 3.45 15.5417 4.35 15.025C5.25 14.5083 6.275 14.25 7.425 14.25C8.59167 14.25 9.58333 14.5 10.4 15C11.2333 15.5 11.8667 16.1833 12.3 17.05C12.7333 17.9 12.95 18.8583 12.95 19.925C12.95 20.2083 12.9417 20.4667 12.925 20.7C12.9083 20.9333 12.8833 21.1417 12.85 21.325H3.425C3.525 22.6417 3.93333 23.6667 4.65 24.4C5.36667 25.1333 6.31667 25.5 7.5 25.5C8.41667 25.5 9.15833 25.325 9.725 24.975C10.3083 24.625 10.775 24.15 11.125 23.55L12.7 24.475C12.2333 25.325 11.5583 26 10.675 26.5C9.80833 27 8.76667 27.25 7.55 27.25ZM7.375 16C6.325 16 5.45833 16.3167 4.775 16.95C4.10833 17.5667 3.68333 18.4333 3.5 19.55H10.95C10.9 18.4167 10.55 17.5417 9.9 16.925C9.25 16.3083 8.40833 16 7.375 16ZM23.8875 14.5V16.225H19.3375V23.55C19.3375 24.1667 19.5125 24.625 19.8625 24.925C20.2125 25.225 20.6625 25.375 21.2125 25.375C21.6958 25.375 22.1125 25.2917 22.4625 25.125C22.8125 24.9583 23.1292 24.7333 23.4125 24.45L24.1125 26.125C23.7292 26.475 23.2708 26.75 22.7375 26.95C22.2208 27.15 21.6208 27.25 20.9375 27.25C20.3042 27.25 19.7125 27.1417 19.1625 26.925C18.6125 26.6917 18.1708 26.3333 17.8375 25.85C17.5208 25.35 17.3542 24.7 17.3375 23.9V16.225H14.8375V14.5H17.3375V11.5L19.3375 10.95V14.5H23.8875ZM26.8611 27V8.75H28.8611V16.375C29.2945 15.625 29.8695 15.0833 30.5861 14.75C31.3028 14.4167 32.0861 14.25 32.9361 14.25C33.8361 14.25 34.6528 14.425 35.3861 14.775C36.1195 15.1083 36.7028 15.625 37.1361 16.325C37.5861 17.025 37.8111 17.9167 37.8111 19V27H35.8111V19.7C35.8111 18.3167 35.5111 17.3583 34.9111 16.825C34.3278 16.275 33.6028 16 32.7361 16C32.1361 16 31.5361 16.1417 30.9361 16.425C30.3361 16.7083 29.8361 17.175 29.4361 17.825C29.0528 18.4583 28.8611 19.3083 28.8611 20.375V27H26.8611ZM49.6396 18.925C49.6396 17.9917 49.3896 17.275 48.8896 16.775C48.3896 16.2583 47.6813 16 46.7646 16C45.898 16 45.1646 16.1917 44.5646 16.575C43.9646 16.9417 43.523 17.5417 43.2396 18.375L41.6146 17.375C41.948 16.4417 42.5646 15.6917 43.4646 15.125C44.3646 14.5417 45.4813 14.25 46.8146 14.25C47.7146 14.25 48.5313 14.4083 49.2646 14.725C49.998 15.025 50.573 15.4917 50.9896 16.125C51.423 16.7417 51.6396 17.5417 51.6396 18.525V24.575C51.6396 25.175 51.9563 25.475 52.5896 25.475C52.9063 25.475 53.2146 25.4333 53.5146 25.35L53.4146 26.925C53.0813 27.0917 52.648 27.175 52.1146 27.175C51.498 27.175 50.9646 27.025 50.5146 26.725C50.0813 26.425 49.798 25.9667 49.6646 25.35C49.2313 26 48.6396 26.4833 47.8896 26.8C47.1396 27.1 46.398 27.25 45.6646 27.25C44.9313 27.25 44.248 27.125 43.6146 26.875C42.9813 26.625 42.473 26.25 42.0896 25.75C41.723 25.2333 41.5396 24.6 41.5396 23.85C41.5396 22.9167 41.848 22.15 42.4646 21.55C43.098 20.9333 43.973 20.5167 45.0896 20.3L49.6396 19.4V18.925ZM43.5896 23.75C43.5896 24.2667 43.7896 24.6917 44.1896 25.025C44.6063 25.3417 45.1896 25.5 45.9396 25.5C46.5896 25.5 47.1896 25.3917 47.7396 25.175C48.3063 24.9417 48.7646 24.6 49.1146 24.15C49.4646 23.6833 49.6396 23.0917 49.6396 22.375V21.05L46.0146 21.8C45.198 21.9667 44.5896 22.2 44.1896 22.5C43.7896 22.8 43.5896 23.2167 43.5896 23.75ZM56.4998 27V14.5H58.2498L58.3748 16.45C58.8081 15.6667 59.3998 15.1083 60.1498 14.775C60.8998 14.425 61.7081 14.25 62.5748 14.25C63.4748 14.25 64.2915 14.425 65.0248 14.775C65.7581 15.1083 66.3415 15.625 66.7748 16.325C67.2248 17.025 67.4498 17.9167 67.4498 19V27H65.4498V19.7C65.4498 18.3167 65.1498 17.3583 64.5498 16.825C63.9665 16.275 63.2415 16 62.3748 16C61.7748 16 61.1748 16.1417 60.5748 16.425C59.9748 16.7083 59.4748 17.1667 59.0748 17.8C58.6915 18.4333 58.4998 19.2833 58.4998 20.35V27H56.4998ZM71.9783 27V14.5H73.7283L73.8533 16.45C74.3033 15.6833 74.8867 15.125 75.6033 14.775C76.3367 14.425 77.0867 14.25 77.8533 14.25C78.7367 14.25 79.57 14.45 80.3533 14.85C81.1367 15.25 81.7367 15.8667 82.1533 16.7C82.42 16.1333 82.795 15.675 83.2783 15.325C83.7617 14.9583 84.2867 14.6917 84.8533 14.525C85.4367 14.3417 85.9867 14.25 86.5033 14.25C87.3033 14.25 88.0617 14.4167 88.7783 14.75C89.5117 15.0833 90.1117 15.6 90.5783 16.3C91.045 17 91.2783 17.9 91.2783 19V27H89.2783V19.2C89.2783 18.0667 88.995 17.25 88.4283 16.75C87.8617 16.25 87.1617 16 86.3283 16C85.6783 16 85.07 16.1583 84.5033 16.475C83.9367 16.7917 83.4783 17.2583 83.1283 17.875C82.795 18.4917 82.6283 19.25 82.6283 20.15V27H80.6283V19.2C80.6283 18.0667 80.345 17.25 79.7783 16.75C79.2117 16.25 78.5117 16 77.6783 16C77.1283 16 76.5617 16.15 75.9783 16.45C75.4117 16.7333 74.9367 17.1917 74.5533 17.825C74.17 18.4583 73.9783 19.2917 73.9783 20.325V27H71.9783ZM100.981 14.25C102.165 14.25 103.206 14.5083 104.106 15.025C105.023 15.5417 105.74 16.2917 106.256 17.275C106.773 18.2417 107.031 19.4 107.031 20.75C107.031 22.1 106.773 23.2667 106.256 24.25C105.74 25.2167 105.023 25.9583 104.106 26.475C103.206 26.9917 102.165 27.25 100.981 27.25C99.8148 27.25 98.7731 26.9917 97.8564 26.475C96.9398 25.9583 96.2231 25.2167 95.7064 24.25C95.1898 23.2667 94.9314 22.1 94.9314 20.75C94.9314 19.4 95.1898 18.2417 95.7064 17.275C96.2231 16.2917 96.9398 15.5417 97.8564 15.025C98.7731 14.5083 99.8148 14.25 100.981 14.25ZM100.981 15.975C99.7148 15.975 98.7231 16.4 98.0064 17.25C97.2898 18.1 96.9314 19.2667 96.9314 20.75C96.9314 22.2333 97.2898 23.4 98.0064 24.25C98.7231 25.1 99.7148 25.525 100.981 25.525C102.248 25.525 103.24 25.1 103.956 24.25C104.673 23.4 105.031 22.2333 105.031 20.75C105.031 19.2667 104.673 18.1 103.956 17.25C103.24 16.4 102.248 15.975 100.981 15.975ZM117.727 14.5V16.225H113.552V27H111.552V16.225H109.052V14.5H111.552V12.4C111.552 11.2833 111.894 10.375 112.577 9.675C113.26 8.975 114.285 8.625 115.652 8.625C116.085 8.625 116.494 8.675 116.877 8.775C117.26 8.875 117.56 9.01667 117.777 9.2L117.252 10.825C116.852 10.575 116.377 10.45 115.827 10.45C115.11 10.45 114.552 10.625 114.152 10.975C113.752 11.3083 113.552 11.85 113.552 12.6V14.5H117.727ZM127.552 14.5V16.225H123.377V27H121.377V16.225H118.877V14.5H121.377V12.4C121.377 11.2833 121.719 10.375 122.402 9.675C123.085 8.975 124.11 8.625 125.477 8.625C125.91 8.625 126.319 8.675 126.702 8.775C127.085 8.875 127.385 9.01667 127.602 9.2L127.077 10.825C126.677 10.575 126.202 10.45 125.652 10.45C124.935 10.45 124.377 10.625 123.977 10.975C123.577 11.3083 123.377 11.85 123.377 12.6V14.5H127.552ZM136.773 18.925C136.773 17.9917 136.523 17.275 136.023 16.775C135.523 16.2583 134.815 16 133.898 16C133.032 16 132.298 16.1917 131.698 16.575C131.098 16.9417 130.657 17.5417 130.373 18.375L128.748 17.375C129.082 16.4417 129.698 15.6917 130.598 15.125C131.498 14.5417 132.615 14.25 133.948 14.25C134.848 14.25 135.665 14.4083 136.398 14.725C137.132 15.025 137.707 15.4917 138.123 16.125C138.557 16.7417 138.773 17.5417 138.773 18.525V24.575C138.773 25.175 139.09 25.475 139.723 25.475C140.04 25.475 140.348 25.4333 140.648 25.35L140.548 26.925C140.215 27.0917 139.782 27.175 139.248 27.175C138.632 27.175 138.098 27.025 137.648 26.725C137.215 26.425 136.932 25.9667 136.798 25.35C136.365 26 135.773 26.4833 135.023 26.8C134.273 27.1 133.532 27.25 132.798 27.25C132.065 27.25 131.382 27.125 130.748 26.875C130.115 26.625 129.607 26.25 129.223 25.75C128.857 25.2333 128.673 24.6 128.673 23.85C128.673 22.9167 128.982 22.15 129.598 21.55C130.232 20.9333 131.107 20.5167 132.223 20.3L136.773 19.4V18.925ZM130.723 23.75C130.723 24.2667 130.923 24.6917 131.323 25.025C131.74 25.3417 132.323 25.5 133.073 25.5C133.723 25.5 134.323 25.3917 134.873 25.175C135.44 24.9417 135.898 24.6 136.248 24.15C136.598 23.6833 136.773 23.0917 136.773 22.375V21.05L133.148 21.8C132.332 21.9667 131.723 22.2 131.323 22.5C130.923 22.8 130.723 23.2167 130.723 23.75ZM150.645 14.5V16.225H146.095V23.55C146.095 24.1667 146.27 24.625 146.62 24.925C146.97 25.225 147.42 25.375 147.97 25.375C148.454 25.375 148.87 25.2917 149.22 25.125C149.57 24.9583 149.887 24.7333 150.17 24.45L150.87 26.125C150.487 26.475 150.029 26.75 149.495 26.95C148.979 27.15 148.379 27.25 147.695 27.25C147.062 27.25 146.47 27.1417 145.92 26.925C145.37 26.6917 144.929 26.3333 144.595 25.85C144.279 25.35 144.112 24.7 144.095 23.9V16.225H141.595V14.5H144.095V11.5L146.095 10.95V14.5H150.645Z" fill="#374151"/>
</svg>
