<svg width="70" height="19" viewBox="0 0 70 19" fill="none" xmlns="http://www.w3.org/2000/svg">
<path d="M11.4526 10.9199H4.54346V18H0.258789V0.226562H12.1484V3.53467H4.54346V7.62402H11.4526V10.9199ZM18.4961 18H14.2236V0.226562H18.4961V18ZM36.3184 18H32.0581L25.7593 6.94043V18H21.4746V0.226562H25.7593L32.0459 11.2861V0.226562H36.3184V18ZM43.313 14.7041H50.7715V18H39.0283V0.226562H43.313V14.7041ZM55.6665 7.94141L58.938 0.226562H63.5645L57.8394 11.6157V18H53.4937V11.6157L47.7808 0.226562H52.3828L55.6665 7.94141Z" fill="#362F78"/>
<path d="M67.2144 14.0083C67.8654 14.0083 68.4066 14.2036 68.8379 14.5942C69.2692 14.9767 69.4849 15.4691 69.4849 16.0713C69.4849 16.6735 69.2692 17.1699 68.8379 17.5605C68.4066 17.943 67.8654 18.1343 67.2144 18.1343C66.5552 18.1343 66.0099 17.939 65.5786 17.5483C65.1554 17.1577 64.9438 16.6654 64.9438 16.0713C64.9438 15.4772 65.1554 14.9849 65.5786 14.5942C66.0099 14.2036 66.5552 14.0083 67.2144 14.0083Z" fill="#FF5A1F"/>
</svg>
