<svg width="169" height="37" viewBox="0 0 169 37" fill="none" xmlns="http://www.w3.org/2000/svg">
<path d="M12.5366 19.9199H5.62744V27H1.34277V9.22656H13.2324V12.5347H5.62744V16.624H12.5366V19.9199ZM19.5801 27H15.3076V9.22656H19.5801V27ZM37.4023 27H33.1421L26.8433 15.9404V27H22.5586V9.22656H26.8433L33.1299 20.2861V9.22656H37.4023V27ZM44.397 23.7041H51.8555V27H40.1123V9.22656H44.397V23.7041ZM56.7505 16.9414L60.022 9.22656H64.6484L58.9233 20.6157V27H54.5776V20.6157L48.8647 9.22656H53.4668L56.7505 16.9414Z" fill="#362F78"/>
<path d="M68.2983 23.0083C68.9494 23.0083 69.4906 23.2036 69.9219 23.5942C70.3532 23.9767 70.5688 24.4691 70.5688 25.0713C70.5688 25.6735 70.3532 26.1699 69.9219 26.5605C69.4906 26.943 68.9494 27.1343 68.2983 27.1343C67.6392 27.1343 67.0939 26.939 66.6626 26.5483C66.2394 26.1577 66.0278 25.6654 66.0278 25.0713C66.0278 24.4772 66.2394 23.9849 66.6626 23.5942C67.0939 23.2036 67.6392 23.0083 68.2983 23.0083Z" fill="#FF5A1F"/>
</svg>
