<svg width="169" height="37" viewBox="0 0 169 37" fill="none" xmlns="http://www.w3.org/2000/svg">
<path d="M8.575 16.775C7.59167 16.3083 6.63333 16.075 5.7 16.075C5.08333 16.075 4.60833 16.1833 4.275 16.4C3.95833 16.6167 3.8 16.9167 3.8 17.3C3.8 17.6167 3.93333 17.8917 4.2 18.125C4.46667 18.3417 5 18.5667 5.8 18.8L6.55 19.025C7.61667 19.3417 8.41667 19.775 8.95 20.325C9.5 20.875 9.775 21.6 9.775 22.5C9.775 23.65 9.34167 24.5667 8.475 25.25C7.60833 25.9167 6.425 26.25 4.925 26.25C3.30833 26.25 1.96667 25.9833 0.9 25.45L1.55 23.25C2.03333 23.4833 2.54167 23.675 3.075 23.825C3.625 23.975 4.19167 24.05 4.775 24.05C6.15833 24.05 6.85 23.6083 6.85 22.725C6.85 22.325 6.68333 22.025 6.35 21.825C6.03333 21.625 5.48333 21.4083 4.7 21.175L3.925 20.925C2.89167 20.5917 2.125 20.1583 1.625 19.625C1.14167 19.075 0.9 18.3583 0.9 17.475C0.9 16.9583 1.00833 16.4833 1.225 16.05C1.44167 15.6 1.74167 15.2167 2.125 14.9C2.525 14.5833 3 14.3417 3.55 14.175C4.11667 13.9917 4.74167 13.9 5.425 13.9C6.10833 13.9 6.76667 13.9667 7.4 14.1C8.05 14.2167 8.65 14.4 9.2 14.65L8.575 16.775ZM19.9451 14.125H22.8951V26H20.6701L20.3201 24.625H20.2201C19.8368 25.025 19.3285 25.4 18.6951 25.75C18.0618 26.0833 17.2701 26.25 16.3201 26.25C15.0701 26.25 14.0701 25.9 13.3201 25.2C12.5701 24.5 12.1951 23.45 12.1951 22.05V14.125H15.1451V21.75C15.1451 22.5667 15.3285 23.15 15.6951 23.5C16.0785 23.8333 16.5618 24 17.1451 24C17.7618 24 18.2951 23.875 18.7451 23.625C19.2118 23.3583 19.6118 23.0333 19.9451 22.65V14.125ZM37.5379 20.1C37.5379 21.05 37.3962 21.9083 37.1129 22.675C36.8296 23.425 36.4379 24.0667 35.9379 24.6C35.4379 25.1333 34.8462 25.5417 34.1629 25.825C33.4962 26.1083 32.7796 26.25 32.0129 26.25C31.2296 26.25 30.5546 26.1417 29.9879 25.925C29.4379 25.6917 28.9379 25.35 28.4879 24.9H28.4129L28.1879 26H26.0629V8.2H28.9879V15.275C29.4546 14.8417 29.9796 14.5083 30.5629 14.275C31.1462 14.025 31.7629 13.9 32.4129 13.9C33.9962 13.9 35.2462 14.45 36.1629 15.55C37.0796 16.6333 37.5379 18.15 37.5379 20.1ZM34.4879 20.15C34.4879 18.9 34.2296 17.9333 33.7129 17.25C33.1962 16.55 32.4796 16.2 31.5629 16.2C31.0462 16.2 30.5712 16.325 30.1379 16.575C29.7046 16.825 29.3296 17.125 29.0129 17.475V23.025C29.2796 23.3417 29.5962 23.5917 29.9629 23.775C30.3296 23.9583 30.7462 24.05 31.2129 24.05C31.6296 24.05 32.0379 23.975 32.4379 23.825C32.8379 23.675 33.1879 23.4417 33.4879 23.125C33.7879 22.7917 34.0296 22.3833 34.2129 21.9C34.3962 21.4167 34.4879 20.8333 34.4879 20.15ZM48.0033 26V16.275H43.5283V26H40.6033V16.275H38.8283V14.125H40.6033V13.075C40.6033 12.3083 40.7283 11.6167 40.9783 11C41.245 10.3833 41.6117 9.86667 42.0783 9.45C42.545 9.01667 43.1033 8.69167 43.7533 8.475C44.42 8.24167 45.1533 8.125 45.9533 8.125C46.5533 8.125 47.1033 8.175 47.6033 8.275C48.1033 8.35833 48.5533 8.475 48.9533 8.625C49.37 8.75833 49.7367 8.90833 50.0533 9.075C50.3867 9.225 50.67 9.36667 50.9033 9.5V26H48.0033ZM43.5283 14.125H48.0033V10.725C47.7533 10.6417 47.495 10.575 47.2283 10.525C46.9617 10.4583 46.695 10.425 46.4283 10.425C45.4783 10.425 44.7533 10.65 44.2533 11.1C43.77 11.55 43.5283 12.325 43.5283 13.425V14.125ZM54.4379 26V14.125H57.3879V26H54.4379ZM55.9129 11.4C55.3962 11.4 54.9879 11.25 54.6879 10.95C54.4046 10.65 54.2629 10.275 54.2629 9.825C54.2629 9.39167 54.4129 9.025 54.7129 8.725C55.0129 8.40833 55.4129 8.25 55.9129 8.25C56.3962 8.25 56.7879 8.4 57.0879 8.7C57.3879 9 57.5379 9.375 57.5379 9.825C57.5379 10.275 57.3879 10.65 57.0879 10.95C56.7879 11.25 56.3962 11.4 55.9129 11.4ZM67.1035 19.95L71.3035 26H67.9285L66.4035 23.775L65.2785 21.825L64.2535 23.75L62.8035 26H59.4785L63.6035 19.95L59.7035 14.125H63.0035L64.4285 16.35L65.4535 18.225L66.4535 16.35L67.7785 14.125H71.0035L67.1035 19.95Z" fill="#E02424"/>
</svg>
