<svg width="72" height="19" viewBox="0 0 72 19" fill="none" xmlns="http://www.w3.org/2000/svg">
<path d="M8.575 8.775C7.59167 8.30833 6.63333 8.075 5.7 8.075C5.08333 8.075 4.60833 8.18333 4.275 8.4C3.95833 8.61667 3.8 8.91667 3.8 9.3C3.8 9.61667 3.93333 9.89167 4.2 10.125C4.46667 10.3417 5 10.5667 5.8 10.8L6.55 11.025C7.61667 11.3417 8.41667 11.775 8.95 12.325C9.5 12.875 9.775 13.6 9.775 14.5C9.775 15.65 9.34167 16.5667 8.475 17.25C7.60833 17.9167 6.425 18.25 4.925 18.25C3.30833 18.25 1.96667 17.9833 0.9 17.45L1.55 15.25C2.03333 15.4833 2.54167 15.675 3.075 15.825C3.625 15.975 4.19167 16.05 4.775 16.05C6.15833 16.05 6.85 15.6083 6.85 14.725C6.85 14.325 6.68333 14.025 6.35 13.825C6.03333 13.625 5.48333 13.4083 4.7 13.175L3.925 12.925C2.89167 12.5917 2.125 12.1583 1.625 11.625C1.14167 11.075 0.9 10.3583 0.9 9.475C0.9 8.95833 1.00833 8.48333 1.225 8.05C1.44167 7.6 1.74167 7.21667 2.125 6.9C2.525 6.58333 3 6.34167 3.55 6.175C4.11667 5.99167 4.74167 5.9 5.425 5.9C6.10833 5.9 6.76667 5.96667 7.4 6.1C8.05 6.21667 8.65 6.4 9.2 6.65L8.575 8.775ZM19.9451 6.125H22.8951V18H20.6701L20.3201 16.625H20.2201C19.8368 17.025 19.3285 17.4 18.6951 17.75C18.0618 18.0833 17.2701 18.25 16.3201 18.25C15.0701 18.25 14.0701 17.9 13.3201 17.2C12.5701 16.5 12.1951 15.45 12.1951 14.05V6.125H15.1451V13.75C15.1451 14.5667 15.3285 15.15 15.6951 15.5C16.0785 15.8333 16.5618 16 17.1451 16C17.7618 16 18.2951 15.875 18.7451 15.625C19.2118 15.3583 19.6118 15.0333 19.9451 14.65V6.125ZM37.5379 12.1C37.5379 13.05 37.3962 13.9083 37.1129 14.675C36.8296 15.425 36.4379 16.0667 35.9379 16.6C35.4379 17.1333 34.8462 17.5417 34.1629 17.825C33.4962 18.1083 32.7796 18.25 32.0129 18.25C31.2296 18.25 30.5546 18.1417 29.9879 17.925C29.4379 17.6917 28.9379 17.35 28.4879 16.9H28.4129L28.1879 18H26.0629V0.2H28.9879V7.275C29.4546 6.84167 29.9796 6.50833 30.5629 6.275C31.1462 6.025 31.7629 5.9 32.4129 5.9C33.9962 5.9 35.2462 6.45 36.1629 7.55C37.0796 8.63333 37.5379 10.15 37.5379 12.1ZM34.4879 12.15C34.4879 10.9 34.2296 9.93333 33.7129 9.25C33.1962 8.55 32.4796 8.2 31.5629 8.2C31.0462 8.2 30.5712 8.325 30.1379 8.575C29.7046 8.825 29.3296 9.125 29.0129 9.475V15.025C29.2796 15.3417 29.5962 15.5917 29.9629 15.775C30.3296 15.9583 30.7462 16.05 31.2129 16.05C31.6296 16.05 32.0379 15.975 32.4379 15.825C32.8379 15.675 33.1879 15.4417 33.4879 15.125C33.7879 14.7917 34.0296 14.3833 34.2129 13.9C34.3962 13.4167 34.4879 12.8333 34.4879 12.15ZM48.0033 18V8.275H43.5283V18H40.6033V8.275H38.8283V6.125H40.6033V5.075C40.6033 4.30833 40.7283 3.61667 40.9783 3C41.245 2.38333 41.6117 1.86667 42.0783 1.45C42.545 1.01667 43.1033 0.691666 43.7533 0.474999C44.42 0.241666 45.1533 0.124999 45.9533 0.124999C46.5533 0.124999 47.1033 0.174999 47.6033 0.274999C48.1033 0.358332 48.5533 0.474999 48.9533 0.624999C49.37 0.758332 49.7367 0.908332 50.0533 1.075C50.3867 1.225 50.67 1.36667 50.9033 1.5V18H48.0033ZM43.5283 6.125H48.0033V2.725C47.7533 2.64167 47.495 2.575 47.2283 2.525C46.9617 2.45833 46.695 2.425 46.4283 2.425C45.4783 2.425 44.7533 2.65 44.2533 3.1C43.77 3.55 43.5283 4.325 43.5283 5.425V6.125ZM54.4379 18V6.125H57.3879V18H54.4379ZM55.9129 3.4C55.3962 3.4 54.9879 3.25 54.6879 2.95C54.4046 2.65 54.2629 2.275 54.2629 1.825C54.2629 1.39167 54.4129 1.025 54.7129 0.724999C55.0129 0.408332 55.4129 0.249999 55.9129 0.249999C56.3962 0.249999 56.7879 0.399999 57.0879 0.699999C57.3879 0.999999 57.5379 1.375 57.5379 1.825C57.5379 2.275 57.3879 2.65 57.0879 2.95C56.7879 3.25 56.3962 3.4 55.9129 3.4ZM67.1035 11.95L71.3035 18H67.9285L66.4035 15.775L65.2785 13.825L64.2535 15.75L62.8035 18H59.4785L63.6035 11.95L59.7035 6.125H63.0035L64.4285 8.35L65.4535 10.225L66.4535 8.35L67.7785 6.125H71.0035L67.1035 11.95Z" fill="#E02424"/>
</svg>
